<svg version="1.1" id="Capa_1" xmlns="http://www.w3.org/2000/svg" xmlns:xlink="http://www.w3.org/1999/xlink" x="0px" y="0px" viewBox="0 0 511.999 511.999" style="enable-background:new 0 0 511.999 511.999;" xml:space="preserve">
<path style="fill:#71D1F1;" d="M316.45,194.011l-17.37-15.12h-0.01c-30.28-23.14-68.1-36.9-109.07-36.9 c-62.34,0-117.39,
31.86-149.7,80.16l24,228.56c32.47,31.71,76.85,51.28,125.7,51.28c45.81,0,87.68-17.21,119.5-45.5l57.01-169.85 C359.35,250.801,
341.5,218.761,316.45,194.011z"/><path style="fill:#FFFFFF;"

 d="M480.79,131.441l21.21,21.21c0,0-58.14,25.14-58.93,25.93c-0.78,0.78-25.92,58.93-25.92,58.93 
 l-21.22-21.22l7.61-48.85c-9.652-6.822-3.101-2.303-44.08-38.72c-1.171,1.777,8.791-13.343-48.38,73.43l-14.14-14.14 
 c26.024-111.062,21.92-93.551,22.37-95.47l-24.03-21.64c-16.52-15.09-23.94-37.73-19.55-59.67c21.94-4.39,44.57,3.03,59.66,19.56 
 l21.65,24.02l95.46-22.37l14.14,14.15l-73.43,48.38c36.675,41.26,32.021,34.564,38.72,44.08L480.79,131.441z"/>
 
 <g><path style="fill:#98E38A;"
 
  d="M366.51,286.641c2.29,11.43,3.49,23.26,3.49,35.35c0,53.43-23.41,101.51-60.5,134.5
   c-23.64-6.95-39.5-19.8-39.5-34.5c0-0.04,0-0.08,0-0.12c0.08-12.94-7.01-24.91-18.38-31.1c-13.31-7.24-21.62-17.43-21.62-28.78 
   c0-20.83,27.97-37.74,63.56-39.63c0.05-0.14,0.1-0.28,0.15-0.42h-0.16C328.02,321.001,356.83,306.431,366.51,286.641z"/>
   
   <path style="fill:#98E38A;" d="M170,271.991c0,15.944-18.403,29.394-34.2,32.32c-37.93,7.05-65.8,30.15-65.8,57.68
    c0,0.06,0,0.11,0,0.17c0.04,8.39,3.18,16.48,8.82,22.71c7.07,7.81,11.18,17.12,11.18,27.12c0,15.61-10.01,29.55-25.7,38.72 
    c-33.49-32.71-54.3-78.33-54.3-128.72c0-36.9,11.17-71.25,30.29-99.84h0.01c3.2-0.11,6.43-0.16,9.7-0.16 C116.27,221.991,170,
    244.381,170,271.991z"/>
    
    </g><path d="M310,271.991c5.52,0,10-4.48,10-10s-4.48-10-10-10s-10,4.48-10,10S304.48,271.991,310,271.991z"/>
    
    <path d="M57.351,457.902c35.736,34.88,82.842,54.089,132.649,54.089c46.459,0,91.209-17.02,126.029-47.926 
    c0.019-0.016,0.037-0.032,0.056-0.049c0.021-0.018,0.041-0.035,0.062-0.053C356.727,427.869,380,376.122,380,321.991
     c0-12.555-1.24-25.11-3.684-37.309c-6.887-34.47-23.118-66.062-47.105-91.865l32.2-48.88c29.645,26.633,28.365,25.713,
     31.309,27.998 l-6.671,42.816c-0.491,3.154,0.553,6.354,2.81,8.611l21.221,21.22c4.971,4.97,13.438,3.403,16.25-3.103
      c7.839-18.131,20.159-46.453,24.232-55.412c8.955-4.074,37.278-16.398,55.407-24.237c6.497-2.809,8.075-11.276,3.103-16.25 
      l-21.21-21.21c-2.256-2.256-5.447-3.3-8.61-2.81l-42.815,6.668c-2.185-2.82-0.983-1.24-28.009-31.309l63.715-41.979
       c5.276-3.477,6.05-10.937,1.571-15.419l-14.14-14.15c-2.445-2.449-5.989-3.458-9.354-2.668l-89.707,21.021l-17.736-19.678
        c-17.345-19-43.785-27.67-69.007-22.623c-3.958,0.792-7.052,3.886-7.844,7.843c-5.047,25.221,3.617,51.666,22.663,69.063
         l19.637,17.684l-15.509,66.189c-30.623-19.809-65.834-30.21-102.717-30.21c-105.375,0-190,85.774-190,190
          c0,51.512,20.346,99.757,57.292,135.854C57.312,457.864,57.331,457.883,57.351,457.902z M360,321.991 
          c0,46.54-19.248,91.11-52.983,123.184C290.651,439.329,280,430.334,280,
          421.991v-0.058c0.103-16.658-8.939-31.964-23.602-39.947 C245.977,376.318,240,369.03,240,361.991c0-12.875,20.68-27.87,
          54.09-29.644c0.935-0.049,1.842-0.229,2.7-0.521 c25.205-1.217,47.592-9.081,62.808-21.412C359.859,314.264,360,318.127,
          360,321.991z M329.046,94.822 c0.832-3.55-0.335-7.271-3.044-9.711l-23.978-21.592c-12.118-11.069-18.471-27.215-17.405-43.397 
          c16.191-1.057,32.315,5.286,43.343,17.366l21.65,24.02c2.438,2.707,6.16,3.871,9.709,3.041l90.04-21.1l1.538,1.539l-63.191,41.634 
          c-2.434,1.604-4.047,4.189-4.417,7.08s0.539,5.799,2.49,7.964c37.718,42.299,31.507,34.121,37.971,43.142
          c2.191,3.112,5.962,4.71,9.717,4.125l43.842-6.828l7.214,7.214c-46.455,20.122-46.898,20.565-48.525,22.192 
          c-1.619,1.62-2.062,2.062-22.184,48.525l-7.223-7.223l6.828-43.831c1.049-6.731-4.517-9.952-4.6-10.052
           c-7.763-5.479-2.604-1.924-42.668-37.637c-2.165-1.951-5.072-2.857-7.965-2.489c-2.891,0.371-5.477,1.984-7.079,4.418 l-41.627,
           63.191l-1.535-1.535L329.046,94.822z M190,151.991c35.409,0,69.095,10.718,97.834,31.053 c-0.041,0.944-2.884,7.119,2.035,
           12.038l14.14,14.14c3.635,3.636,9.507,3.977,13.554,0.523 c19.015,21.548,32.171,47.311,38.388,75.303c-9.607,
           15.226-34.69,26.133-62.674,26.897c-1.13,0.031-2.211,0.248-3.215,0.621 c-17.837,1.352-34.391,6.282-46.885,
           14C228.231,335.799,220,348.38,220,361.991c0,14.809,9.532,28.15,26.839,37.563 c8.176,4.451,13.219,12.979,
           13.161,22.317v0.12c0,14.975,10.828,28.377,29.701,37.594c-28.915,20.993-63.735,32.406-99.701,32.406 
           c-40.544,0-79.09-14.236-109.797-40.317c24.479-20.843,25.993-51.462,6.03-73.516c-3.991-4.408-6.205-10.107-6.233-15.998v-0.17 
           c0-21.866,23.697-41.542,57.62-47.847c10.351-1.917,19.967-6.621,27.81-13.604c12.042-10.72,14.57-21.442,14.57-28.549 
           c0-32.593-50.741-57.548-119.641-59.829C92.532,174.184,139.708,151.991,190,151.991z M45.819,232.023 
           c27.819-0.398,59.76,3.252,85.186,13.846c18.156,7.565,28.995,17.33,28.995,26.122c0,4.384-2.647,8.963-7.869,13.611 
           c-5.116,4.555-11.393,7.624-18.158,8.877c-20.575,3.824-38.496,11.922-51.827,23.419C67.864,330.214,60,345.873,60,361.991v0.218 
           c0.052,10.875,4.104,21.307,11.406,29.373c13.778,15.221,10.383,33.488-5.785,46.173C36.143,406.172,20,365.376,20,321.991 
           C20,290.007,28.915,259.015,45.819,232.023z"/>
           
           <path d="M180,441.991c0,5.523,4.478,10,10,10h40c5.522,0,10-4.477,10-10s-4.478-10-10-10h-40 
           C184.478,431.991,180,436.468,180,441.991z"/>
           
           <path d="M170,351.991h-40c-5.522,0-10,4.477-10,10s4.478,10,10,10h40c5.522,0,10-4.477,10-10S175.522,351.991,170,351.991z"/>
           
           <path d="M200,261.991c0,5.523,4.478,10,10,10h60c5.522,0,10-4.477,10-10s-4.478-10-10-10h-60 
           C204.478,251.991,200,256.468,200,261.991z"/><path d="M210,211.991c5.522,0,10-4.477,10-10s-4.478-10-10-10h-40c-5.522,0-10,
           4.477-10,10s4.478,10,10,10H210z"/></svg>